<mxfile host="app.diagrams.net" modified="2020-11-10T16:30:06.731Z" agent="5.0 (Windows NT 6.1; Win64; x64) AppleWebKit/537.36 (KHTML, like Gecko) Chrome/86.0.4240.183 Safari/537.36" etag="m30qffUnJZbovA_3c0_X" version="13.9.3" type="github">
  <diagram id="Me5RvTQH1GhNZqUtPxaJ" name="Page-1">
    <mxGraphModel dx="866" dy="1626" grid="1" gridSize="10" guides="1" tooltips="1" connect="1" arrows="1" fold="1" page="1" pageScale="1" pageWidth="850" pageHeight="1100" math="0" shadow="0">
      <root>
        <mxCell id="0" />
        <mxCell id="1" parent="0" />
        <mxCell id="xlySF7DcrpDDtVsnA7wV-1" value="" style="rounded=1;whiteSpace=wrap;html=1;arcSize=3;fillColor=#E6E6E6;" vertex="1" parent="1">
          <mxGeometry y="-10" width="680" height="460" as="geometry" />
        </mxCell>
        <mxCell id="xlySF7DcrpDDtVsnA7wV-2" value="&lt;font size=&quot;1&quot;&gt;&lt;b style=&quot;font-size: 22px&quot;&gt;COVID 19 TRACKER&lt;/b&gt;&lt;/font&gt;" style="rounded=1;whiteSpace=wrap;html=1;arcSize=10;align=center;" vertex="1" parent="1">
          <mxGeometry x="30" y="20" width="260" height="40" as="geometry" />
        </mxCell>
        <mxCell id="xlySF7DcrpDDtVsnA7wV-16" value="" style="shape=rect;strokeColor=none;fillColor=none;strokeWidth=1;rounded=1;shadow=0;sketch=0;" vertex="1" parent="1">
          <mxGeometry x="320" y="20" width="180" height="40" as="geometry" />
        </mxCell>
        <mxCell id="xlySF7DcrpDDtVsnA7wV-17" value="WorldWide" style="html=1;strokeWidth=1;shadow=0;dashed=0;shape=mxgraph.ios7ui.marginRect;rx=3;ry=3;rectMargin=5;labelBorderColor=none;" vertex="1" parent="xlySF7DcrpDDtVsnA7wV-16">
          <mxGeometry width="164.63414634146343" height="40" as="geometry" />
        </mxCell>
        <mxCell id="xlySF7DcrpDDtVsnA7wV-19" value="" style="rounded=1;whiteSpace=wrap;html=1;shadow=0;sketch=0;strokeWidth=1;arcSize=9;fillColor=#FFFFFF;" vertex="1" parent="1">
          <mxGeometry x="30" y="80" width="120" height="70" as="geometry" />
        </mxCell>
        <mxCell id="xlySF7DcrpDDtVsnA7wV-20" value="&amp;nbsp;Coronavirus Cases" style="text;html=1;strokeColor=none;fillColor=none;align=left;verticalAlign=middle;whiteSpace=wrap;rounded=0;shadow=0;sketch=0;" vertex="1" parent="1">
          <mxGeometry x="30" y="80" width="120" height="20" as="geometry" />
        </mxCell>
        <mxCell id="xlySF7DcrpDDtVsnA7wV-22" value="1.2M Total" style="text;html=1;strokeColor=none;fillColor=none;align=center;verticalAlign=middle;whiteSpace=wrap;rounded=0;shadow=0;sketch=0;" vertex="1" parent="1">
          <mxGeometry x="35" y="125" width="70" height="20" as="geometry" />
        </mxCell>
        <mxCell id="xlySF7DcrpDDtVsnA7wV-23" value="+1000" style="text;html=1;strokeColor=none;fillColor=none;align=center;verticalAlign=middle;whiteSpace=wrap;rounded=0;shadow=0;sketch=0;" vertex="1" parent="1">
          <mxGeometry x="40" y="105" width="40" height="20" as="geometry" />
        </mxCell>
        <mxCell id="xlySF7DcrpDDtVsnA7wV-24" value="" style="rounded=1;whiteSpace=wrap;html=1;shadow=0;sketch=0;strokeWidth=1;arcSize=9;fillColor=#FFFFFF;" vertex="1" parent="1">
          <mxGeometry x="190" y="80" width="130" height="70" as="geometry" />
        </mxCell>
        <mxCell id="xlySF7DcrpDDtVsnA7wV-25" value="&amp;nbsp;Recovered" style="text;html=1;strokeColor=none;fillColor=none;align=left;verticalAlign=middle;whiteSpace=wrap;rounded=0;shadow=0;sketch=0;" vertex="1" parent="1">
          <mxGeometry x="190" y="80" width="120" height="20" as="geometry" />
        </mxCell>
        <mxCell id="xlySF7DcrpDDtVsnA7wV-26" value="1.2M Total" style="text;html=1;strokeColor=none;fillColor=none;align=center;verticalAlign=middle;whiteSpace=wrap;rounded=0;shadow=0;sketch=0;" vertex="1" parent="1">
          <mxGeometry x="195" y="125" width="70" height="20" as="geometry" />
        </mxCell>
        <mxCell id="xlySF7DcrpDDtVsnA7wV-27" value="+1000" style="text;html=1;strokeColor=none;fillColor=none;align=center;verticalAlign=middle;whiteSpace=wrap;rounded=0;shadow=0;sketch=0;" vertex="1" parent="1">
          <mxGeometry x="200" y="105" width="40" height="20" as="geometry" />
        </mxCell>
        <mxCell id="xlySF7DcrpDDtVsnA7wV-28" value="" style="rounded=1;whiteSpace=wrap;html=1;shadow=0;sketch=0;strokeWidth=1;arcSize=9;fillColor=#FFFFFF;" vertex="1" parent="1">
          <mxGeometry x="350" y="80" width="130" height="70" as="geometry" />
        </mxCell>
        <mxCell id="xlySF7DcrpDDtVsnA7wV-29" value="&amp;nbsp;Deaths" style="text;html=1;strokeColor=none;fillColor=none;align=left;verticalAlign=middle;whiteSpace=wrap;rounded=0;shadow=0;sketch=0;" vertex="1" parent="1">
          <mxGeometry x="350" y="80" width="120" height="20" as="geometry" />
        </mxCell>
        <mxCell id="xlySF7DcrpDDtVsnA7wV-30" value="1.2M Total" style="text;html=1;strokeColor=none;fillColor=none;align=center;verticalAlign=middle;whiteSpace=wrap;rounded=0;shadow=0;sketch=0;" vertex="1" parent="1">
          <mxGeometry x="355" y="125" width="70" height="20" as="geometry" />
        </mxCell>
        <mxCell id="xlySF7DcrpDDtVsnA7wV-31" value="+1000" style="text;html=1;strokeColor=none;fillColor=none;align=center;verticalAlign=middle;whiteSpace=wrap;rounded=0;shadow=0;sketch=0;" vertex="1" parent="1">
          <mxGeometry x="360" y="105" width="40" height="20" as="geometry" />
        </mxCell>
        <mxCell id="xlySF7DcrpDDtVsnA7wV-33" value="" style="rounded=1;whiteSpace=wrap;html=1;shadow=0;sketch=0;strokeWidth=1;align=left;arcSize=5;fillColor=#FFFFFF;" vertex="1" parent="1">
          <mxGeometry x="30" y="180" width="450" height="260" as="geometry" />
        </mxCell>
        <mxCell id="xlySF7DcrpDDtVsnA7wV-34" value="" style="shape=image;html=1;verticalAlign=top;verticalLabelPosition=bottom;labelBackgroundColor=#ffffff;imageAspect=0;aspect=fixed;image=https://cdn2.iconfinder.com/data/icons/social-media-2304/64/03-google_map-128.png;rounded=1;shadow=0;sketch=0;strokeWidth=1;fillColor=#E6E6E6;align=left;" vertex="1" parent="1">
          <mxGeometry x="160" y="215" width="195" height="195" as="geometry" />
        </mxCell>
        <mxCell id="xlySF7DcrpDDtVsnA7wV-35" value="" style="rounded=1;whiteSpace=wrap;html=1;shadow=0;sketch=0;strokeWidth=1;align=left;arcSize=3;fillColor=#FFFFFF;" vertex="1" parent="1">
          <mxGeometry x="490" y="10" width="180" height="430" as="geometry" />
        </mxCell>
        <mxCell id="xlySF7DcrpDDtVsnA7wV-36" value="Cases by Country" style="text;html=1;strokeColor=none;fillColor=none;align=center;verticalAlign=middle;whiteSpace=wrap;rounded=0;shadow=0;sketch=0;" vertex="1" parent="1">
          <mxGeometry x="520" y="20" width="110" height="30" as="geometry" />
        </mxCell>
        <mxCell id="xlySF7DcrpDDtVsnA7wV-37" value="" style="shape=table;html=1;whiteSpace=wrap;startSize=0;container=1;collapsible=0;childLayout=tableLayout;columnLines=0;rowLines=0;rounded=1;shadow=0;sketch=0;strokeWidth=1;fillColor=#E6E6E6;align=left;arcSize=3;" vertex="1" parent="1">
          <mxGeometry x="505" y="60" width="150" height="200" as="geometry" />
        </mxCell>
        <mxCell id="xlySF7DcrpDDtVsnA7wV-38" value="" style="shape=partialRectangle;html=1;whiteSpace=wrap;collapsible=0;dropTarget=0;pointerEvents=0;fillColor=none;top=0;left=0;bottom=0;right=0;points=[[0,0.5],[1,0.5]];portConstraint=eastwest;" vertex="1" parent="xlySF7DcrpDDtVsnA7wV-37">
          <mxGeometry width="150" height="66" as="geometry" />
        </mxCell>
        <mxCell id="xlySF7DcrpDDtVsnA7wV-39" value="Value 1" style="shape=partialRectangle;html=1;whiteSpace=wrap;connectable=0;fillColor=none;top=0;left=0;bottom=0;right=0;overflow=hidden;" vertex="1" parent="xlySF7DcrpDDtVsnA7wV-38">
          <mxGeometry width="50" height="66" as="geometry" />
        </mxCell>
        <mxCell id="xlySF7DcrpDDtVsnA7wV-40" value="Value 2" style="shape=partialRectangle;html=1;whiteSpace=wrap;connectable=0;fillColor=none;top=0;left=0;bottom=0;right=0;overflow=hidden;" vertex="1" parent="xlySF7DcrpDDtVsnA7wV-38">
          <mxGeometry x="50" width="50" height="66" as="geometry" />
        </mxCell>
        <mxCell id="xlySF7DcrpDDtVsnA7wV-41" value="Value 3" style="shape=partialRectangle;html=1;whiteSpace=wrap;connectable=0;fillColor=none;top=0;left=0;bottom=0;right=0;overflow=hidden;" vertex="1" parent="xlySF7DcrpDDtVsnA7wV-38">
          <mxGeometry x="100" width="50" height="66" as="geometry" />
        </mxCell>
        <mxCell id="xlySF7DcrpDDtVsnA7wV-42" value="" style="shape=partialRectangle;html=1;whiteSpace=wrap;collapsible=0;dropTarget=0;pointerEvents=0;fillColor=none;top=0;left=0;bottom=0;right=0;points=[[0,0.5],[1,0.5]];portConstraint=eastwest;" vertex="1" parent="xlySF7DcrpDDtVsnA7wV-37">
          <mxGeometry y="66" width="150" height="68" as="geometry" />
        </mxCell>
        <mxCell id="xlySF7DcrpDDtVsnA7wV-43" value="Value 4" style="shape=partialRectangle;html=1;whiteSpace=wrap;connectable=0;fillColor=none;top=0;left=0;bottom=0;right=0;overflow=hidden;" vertex="1" parent="xlySF7DcrpDDtVsnA7wV-42">
          <mxGeometry width="50" height="68" as="geometry" />
        </mxCell>
        <mxCell id="xlySF7DcrpDDtVsnA7wV-44" value="Value 5" style="shape=partialRectangle;html=1;whiteSpace=wrap;connectable=0;fillColor=none;top=0;left=0;bottom=0;right=0;overflow=hidden;" vertex="1" parent="xlySF7DcrpDDtVsnA7wV-42">
          <mxGeometry x="50" width="50" height="68" as="geometry" />
        </mxCell>
        <mxCell id="xlySF7DcrpDDtVsnA7wV-45" value="Value 6" style="shape=partialRectangle;html=1;whiteSpace=wrap;connectable=0;fillColor=none;top=0;left=0;bottom=0;right=0;overflow=hidden;" vertex="1" parent="xlySF7DcrpDDtVsnA7wV-42">
          <mxGeometry x="100" width="50" height="68" as="geometry" />
        </mxCell>
        <mxCell id="xlySF7DcrpDDtVsnA7wV-46" value="" style="shape=partialRectangle;html=1;whiteSpace=wrap;collapsible=0;dropTarget=0;pointerEvents=0;fillColor=none;top=0;left=0;bottom=0;right=0;points=[[0,0.5],[1,0.5]];portConstraint=eastwest;" vertex="1" parent="xlySF7DcrpDDtVsnA7wV-37">
          <mxGeometry y="134" width="150" height="66" as="geometry" />
        </mxCell>
        <mxCell id="xlySF7DcrpDDtVsnA7wV-47" value="Value 7" style="shape=partialRectangle;html=1;whiteSpace=wrap;connectable=0;fillColor=none;top=0;left=0;bottom=0;right=0;overflow=hidden;" vertex="1" parent="xlySF7DcrpDDtVsnA7wV-46">
          <mxGeometry width="50" height="66" as="geometry" />
        </mxCell>
        <mxCell id="xlySF7DcrpDDtVsnA7wV-48" value="Value 8" style="shape=partialRectangle;html=1;whiteSpace=wrap;connectable=0;fillColor=none;top=0;left=0;bottom=0;right=0;overflow=hidden;" vertex="1" parent="xlySF7DcrpDDtVsnA7wV-46">
          <mxGeometry x="50" width="50" height="66" as="geometry" />
        </mxCell>
        <mxCell id="xlySF7DcrpDDtVsnA7wV-49" value="Value 9" style="shape=partialRectangle;html=1;whiteSpace=wrap;connectable=0;fillColor=none;top=0;left=0;bottom=0;right=0;overflow=hidden;" vertex="1" parent="xlySF7DcrpDDtVsnA7wV-46">
          <mxGeometry x="100" width="50" height="66" as="geometry" />
        </mxCell>
        <mxCell id="xlySF7DcrpDDtVsnA7wV-50" value="" style="fillColor=#10739E;strokeColor=none;rounded=1;shadow=0;sketch=0;align=left;" vertex="1" parent="1">
          <mxGeometry x="495" y="330" width="30" height="100" as="geometry" />
        </mxCell>
        <mxCell id="xlySF7DcrpDDtVsnA7wV-51" value="" style="shape=mxgraph.arrows2.arrow;dy=0.4;dx=16;notch=0;direction=north;fillColor=#1699D3;strokeColor=none;" vertex="1" parent="xlySF7DcrpDDtVsnA7wV-50">
          <mxGeometry x="3" y="30" width="24" height="70" as="geometry" />
        </mxCell>
        <mxCell id="xlySF7DcrpDDtVsnA7wV-52" value="Label" style="text;html=1;align=center;verticalAlign=middle;whiteSpace=wrap;fontColor=#FFFFFF;fontSize=10;" vertex="1" parent="xlySF7DcrpDDtVsnA7wV-50">
          <mxGeometry width="30" height="20" as="geometry" />
        </mxCell>
        <mxCell id="xlySF7DcrpDDtVsnA7wV-53" value="" style="fillColor=#F2931E;strokeColor=none;rounded=1;shadow=0;sketch=0;align=left;" vertex="1" parent="1">
          <mxGeometry x="530" y="310" width="30" height="120" as="geometry" />
        </mxCell>
        <mxCell id="xlySF7DcrpDDtVsnA7wV-54" value="" style="shape=mxgraph.arrows2.arrow;dy=0.4;dx=16;notch=0;direction=south;fillColor=#F5AB50;strokeColor=none;" vertex="1" parent="xlySF7DcrpDDtVsnA7wV-53">
          <mxGeometry x="3" width="24" height="80" as="geometry" />
        </mxCell>
        <mxCell id="xlySF7DcrpDDtVsnA7wV-55" value="Label" style="text;html=1;align=center;verticalAlign=middle;whiteSpace=wrap;fontColor=#FFFFFF;fontSize=10;" vertex="1" parent="xlySF7DcrpDDtVsnA7wV-53">
          <mxGeometry width="30" height="20" as="geometry" />
        </mxCell>
        <mxCell id="xlySF7DcrpDDtVsnA7wV-56" value="" style="fillColor=#AE4132;strokeColor=none;rounded=1;shadow=0;sketch=0;align=left;" vertex="1" parent="1">
          <mxGeometry x="565" y="300" width="30" height="130" as="geometry" />
        </mxCell>
        <mxCell id="xlySF7DcrpDDtVsnA7wV-57" value="" style="shape=mxgraph.arrows2.arrow;dy=0.4;dx=16;notch=0;direction=north;fillColor=#E85642;strokeColor=none;" vertex="1" parent="xlySF7DcrpDDtVsnA7wV-56">
          <mxGeometry x="3" y="80" width="24" height="50" as="geometry" />
        </mxCell>
        <mxCell id="xlySF7DcrpDDtVsnA7wV-58" value="Label" style="text;html=1;align=center;verticalAlign=middle;whiteSpace=wrap;fontColor=#FFFFFF;fontSize=10;" vertex="1" parent="xlySF7DcrpDDtVsnA7wV-56">
          <mxGeometry width="30" height="20" as="geometry" />
        </mxCell>
        <mxCell id="xlySF7DcrpDDtVsnA7wV-59" value="" style="fillColor=#12AAB5;strokeColor=none;rounded=1;shadow=0;sketch=0;align=left;" vertex="1" parent="1">
          <mxGeometry x="600" y="350" width="30" height="80" as="geometry" />
        </mxCell>
        <mxCell id="xlySF7DcrpDDtVsnA7wV-60" value="" style="shape=mxgraph.arrows2.arrow;dy=0.4;dx=16;notch=0;direction=south;fillColor=#64BBE2;strokeColor=none;" vertex="1" parent="xlySF7DcrpDDtVsnA7wV-59">
          <mxGeometry x="3" width="24" height="30" as="geometry" />
        </mxCell>
        <mxCell id="xlySF7DcrpDDtVsnA7wV-61" value="Label" style="text;html=1;align=center;verticalAlign=middle;whiteSpace=wrap;fontColor=#FFFFFF;fontSize=10;" vertex="1" parent="xlySF7DcrpDDtVsnA7wV-59">
          <mxGeometry width="30" height="20" as="geometry" />
        </mxCell>
        <mxCell id="xlySF7DcrpDDtVsnA7wV-62" value="" style="fillColor=#23445D;strokeColor=none;rounded=1;shadow=0;sketch=0;align=left;" vertex="1" parent="1">
          <mxGeometry x="635" y="360" width="30" height="70" as="geometry" />
        </mxCell>
        <mxCell id="xlySF7DcrpDDtVsnA7wV-63" value="" style="shape=mxgraph.arrows2.arrow;dy=0.4;dx=16;notch=0;direction=north;fillColor=#2F5B7C;strokeColor=none;" vertex="1" parent="xlySF7DcrpDDtVsnA7wV-62">
          <mxGeometry x="3" y="10" width="24" height="60" as="geometry" />
        </mxCell>
        <mxCell id="xlySF7DcrpDDtVsnA7wV-64" value="Label" style="text;html=1;align=center;verticalAlign=middle;whiteSpace=wrap;fontColor=#FFFFFF;fontSize=10;" vertex="1" parent="xlySF7DcrpDDtVsnA7wV-62">
          <mxGeometry width="30" height="20" as="geometry" />
        </mxCell>
        <mxCell id="xlySF7DcrpDDtVsnA7wV-65" value="Worldwide New Cases" style="text;html=1;strokeColor=none;fillColor=none;align=center;verticalAlign=middle;whiteSpace=wrap;rounded=0;shadow=0;sketch=0;" vertex="1" parent="1">
          <mxGeometry x="505" y="270" width="145" height="20" as="geometry" />
        </mxCell>
      </root>
    </mxGraphModel>
  </diagram>
</mxfile>
